<svg width="1440" height="320" viewBox="0 0 1440 320" fill="none" xmlns="http://www.w3.org/2000/svg">
<g clip-path="url(#clip0)">
<path d="M-0.598484 122.029L23.1764 105.696C46.9513 89.3638 94.5012 56.6986 142.423 50.7308C190.339 44.3631 238.64 65.6927 286.705 70.0239C334.77 74.3551 382.626 63.6878 430.84 78.718C479.063 94.3481 527.643 135.676 576.163 172.704C624.678 209.332 673.118 240.661 720.891 223.994C768.664 207.327 815.768 142.665 863.614 131.298C911.466 120.33 960.046 161.658 1007.97 155.99C1055.9 150.322 1103.14 95.6594 1151.29 105.99C1199.44 116.321 1248.46 189.645 1297.06 231.973C1345.65 274.3 1393.79 283.631 1417.86 288.996L1441.94 293.962L1437.93 5.98965L1413.93 6.3238C1389.93 6.65794 1341.93 7.32623 1293.94 7.99452C1245.94 8.6628 1197.95 9.33109 1149.95 9.99938C1101.96 10.6677 1053.96 11.336 1005.97 12.0042C957.972 12.6725 909.977 13.3408 861.981 14.0091C813.986 14.6774 765.991 15.3457 717.995 16.014C670 16.6822 622.004 17.3505 574.009 18.0188C526.014 18.6871 478.018 19.3554 430.023 20.0237C382.028 20.692 334.032 21.3603 286.037 22.0285C238.042 22.6968 190.046 23.3651 142.051 24.0334C94.0556 24.7017 46.0603 25.37 22.0626 25.7041L-1.93506 26.0383L-0.598484 122.029Z" fill="#004F84"/>
<path d="M0 96L24 80C48 64 96 32 144 26.7C192 21 240 43 288 48C336 53 384 43 432 58.7C480 75 528 117 576 154.7C624 192 672 224 720 208C768 192 816 128 864 117.3C912 107 960 149 1008 144C1056 139 1104 85 1152 96C1200 107 1248 181 1296 224C1344 267 1392 277 1416 282.7L1440 288V0H1416C1392 0 1344 0 1296 0C1248 0 1200 0 1152 0C1104 0 1056 0 1008 0C960 0 912 0 864 0C816 0 768 0 720 0C672 0 624 0 576 0C528 0 480 0 432 0C384 0 336 0 288 0C240 0 192 0 144 0C96 0 48 0 24 0H0V96Z" fill="#016FB9"/>
</g>
<defs>
<clipPath id="clip0">
<rect width="1440" height="320" fill="white"/>
</clipPath>
</defs>
</svg>
