<svg width="1440" height="320" viewBox="0 0 1440 320" fill="none" xmlns="http://www.w3.org/2000/svg">
<g clip-path="url(#clip0)">
<path d="M-8.73972 213.397L39.5205 196.273C87.7808 179.149 184.301 144.902 281.441 137.347C378.571 129.392 476.344 149.13 573.352 135.877C670.359 122.624 766.648 78.3794 863.532 59.8277C960.431 41.8759 1057.93 49.6171 1155.94 79.6524C1253.93 109.088 1352.45 160.817 1401.69 185.982L1450.94 211.547L1452.43 275.53L1403.79 276.658C1355.16 277.786 1257.9 280.042 1160.64 282.298C1063.37 284.554 966.112 286.81 868.85 289.066C771.587 291.322 674.325 293.578 577.062 295.834C479.799 298.09 382.537 300.346 285.274 302.602C188.012 304.859 90.749 307.115 42.1178 308.243L-6.51354 309.371L-8.73972 213.397Z" fill="#004F84"/>
<path d="M0 224L48 208C96 192 192 160 288 154.7C384 149 480 171 576 160C672 149 768 107 864 90.7C960 75 1056 85 1152 117.3C1248 149 1344 203 1392 229.3L1440 256V320H1392C1344 320 1248 320 1152 320C1056 320 960 320 864 320C768 320 672 320 576 320C480 320 384 320 288 320C192 320 96 320 48 320H0V224Z" fill="#016FB9"/>
</g>
<defs>
<clipPath id="clip0">
<rect width="1440" height="320" fill="white"/>
</clipPath>
</defs>
</svg>
