<svg width="155" height="166" viewBox="0 0 155 166" fill="none" xmlns="http://www.w3.org/2000/svg">
<path d="M77.3621 117.022C74.667 117.022 71.9792 116.743 69.3708 116.188C66.8347 115.65 64.3564 114.846 62.0009 113.804C61.6541 113.647 61.3904 113.374 61.2567 113.03C61.1267 112.689 61.1447 112.318 61.3109 111.987C61.5457 111.514 62.0587 111.208 62.6187 111.208C62.8318 111.208 63.0378 111.252 63.2329 111.337C67.6692 113.303 72.4235 114.297 77.3621 114.297C86.2384 114.297 94.591 111.037 100.873 105.117C107.153 99.1904 110.613 91.3154 110.613 82.9362C110.613 74.5673 107.153 66.699 100.873 60.7757C94.591 54.8558 86.2424 51.5961 77.3621 51.5961C68.4821 51.5961 60.1296 54.8558 53.8471 60.7757C47.5719 66.6956 44.1109 74.5669 44.1109 82.9362C44.1109 85.763 44.5083 88.5598 45.2923 91.2541C45.686 92.6128 46.1846 93.9616 46.7735 95.2597C46.8493 95.4266 46.8891 95.6041 46.8891 95.788C46.8927 96.3361 46.5459 96.8306 46.0112 97.0445C45.8305 97.1191 45.6391 97.1569 45.444 97.1569C44.866 97.1569 44.3421 96.8296 44.1145 96.3289C43.4751 94.9181 42.9332 93.4541 42.5069 91.9758L42.4996 91.952C41.6507 89.0295 41.2208 85.9953 41.2208 82.9362C41.2208 78.3379 42.1781 73.8758 44.0603 69.676C45.8811 65.6193 48.4859 61.9777 51.8059 58.8478C55.126 55.7209 58.9879 53.2648 63.2943 51.5484C67.7487 49.7734 72.4813 48.8712 77.3621 48.8712C82.2392 48.8712 86.9718 49.7734 91.4263 51.5484C95.7286 53.2648 99.5938 55.7209 102.915 58.8478C106.234 61.9777 108.843 65.6193 110.664 69.676C112.546 73.8758 113.503 78.3379 113.503 82.9362C113.503 87.5417 112.549 92.0065 110.664 96.2097C108.843 100.266 106.234 103.911 102.915 107.042C99.5945 110.172 95.7326 112.628 91.4263 114.344C86.9718 116.123 82.2392 117.022 77.3621 117.022V117.022ZM71.1049 155.669C70.852 155.669 70.6027 155.607 70.3824 155.488L36.9506 137.303C36.2605 136.928 36.0221 136.093 36.4231 135.443C36.6796 135.021 37.1601 134.762 37.6731 134.762C37.926 134.762 38.1753 134.823 38.3956 134.942L70.6822 152.504C72.3332 150.628 74.7646 149.551 77.3621 149.551C79.956 149.551 82.3877 150.628 84.0419 152.504L110.989 137.851L137.914 123.191C137.553 122.272 137.372 121.308 137.372 120.323C137.372 119.601 137.474 118.879 137.672 118.184C137.864 117.503 138.153 116.845 138.528 116.232C139.099 115.299 139.846 114.495 140.75 113.841C141.006 113.657 141.306 113.562 141.628 113.562C142.083 113.562 142.502 113.756 142.777 114.097C142.972 114.335 143.073 114.621 143.073 114.925C143.073 115.35 142.867 115.745 142.509 116.004C141.909 116.44 141.411 116.972 141.031 117.592C140.786 117.997 140.594 118.429 140.464 118.876C140.464 118.883 140.464 118.89 140.461 118.893C140.327 119.359 140.262 119.84 140.262 120.323C140.258 121.291 140.525 122.241 141.031 123.072C141.429 123.719 141.19 124.554 140.5 124.928L112.433 140.208L84.3411 155.488C84.1211 155.608 83.875 155.668 83.6229 155.668C83.1091 155.668 82.6294 155.41 82.3725 154.994C81.3136 153.291 79.443 152.277 77.3614 152.273C75.2732 152.277 73.4018 153.291 72.3578 154.991C72.0984 155.41 71.6179 155.669 71.1049 155.669V155.669ZM15.7694 125.565C15.5165 125.565 15.2672 125.503 15.0505 125.385L14.2123 124.928C13.8763 124.748 13.6379 124.452 13.5367 124.1C13.4392 123.75 13.4898 123.382 13.6849 123.065C14.1834 122.254 14.4508 121.324 14.4616 120.381V120.33C14.4616 119.376 14.1943 118.443 13.6849 117.625L13.6812 117.612C12.6444 115.905 10.773 114.883 8.67768 114.88C8.29835 114.88 7.92624 114.733 7.65529 114.481C7.38795 114.226 7.2326 113.875 7.2326 113.517V52.3802C7.2326 52.0191 7.38795 51.6683 7.65529 51.4162C7.92624 51.1608 8.29835 51.0143 8.67768 51.0143C10.7333 51.0143 12.6516 49.9686 13.6849 48.2822C14.1979 47.4378 14.4616 46.5212 14.4616 45.561C14.4616 44.6036 14.1906 43.6567 13.6849 42.829C13.4934 42.519 13.4392 42.1409 13.5367 41.7935C13.6379 41.4495 13.8836 41.1467 14.2123 40.9658L42.6839 25.478C42.9043 25.3584 43.1535 25.294 43.4028 25.294C43.9194 25.294 44.3999 25.5563 44.6564 25.9753C45.0538 26.6255 44.819 27.46 44.1254 27.8384L16.8026 42.7029C17.1675 43.6226 17.3517 44.5835 17.3517 45.561C17.3517 46.9879 16.9471 48.3984 16.1848 49.6447C14.8843 51.7637 12.6769 53.2144 10.1228 53.6234V112.267C12.6841 112.676 14.8879 114.127 16.1812 116.248C16.9471 117.482 17.3517 118.892 17.3517 120.329V120.366C17.3517 120.379 17.3481 120.393 17.3481 120.403C17.3409 121.375 17.1494 122.325 16.7882 123.235C17.0627 123.486 17.2181 123.84 17.2181 124.205C17.2181 124.444 17.1494 124.679 17.023 124.883C17.0194 124.89 17.0158 124.897 17.0121 124.904C16.752 125.313 16.2752 125.565 15.7694 125.565ZM146.035 95.5015C145.241 95.5015 144.59 94.8922 144.59 94.1391V53.6234C142.028 53.2147 139.818 51.7637 138.525 49.6382C137.769 48.3984 137.369 46.9882 137.372 45.561C137.372 44.5835 137.553 43.6229 137.914 42.7063L110.989 28.0499L84.0383 13.3898C82.3729 15.27 79.9412 16.3464 77.3621 16.3464C74.7682 16.343 72.3368 15.2666 70.6822 13.3898L70.1042 13.7066L70.1006 13.71L70.0717 13.7236L66.0327 15.9206C65.8123 16.0402 65.563 16.1045 65.3102 16.1045C64.7971 16.1045 64.3167 15.8423 64.0565 15.4233C63.9301 15.2155 63.8651 14.9805 63.8651 14.7455C63.8651 14.2584 64.1396 13.8054 64.5876 13.5605L70.3824 10.4098C70.6027 10.2902 70.852 10.2258 71.1049 10.2258C71.6215 10.2258 72.0984 10.4881 72.3585 10.9071C73.3845 12.5829 75.2992 13.6218 77.3585 13.6218H77.3621C79.4321 13.6218 81.3071 12.6033 82.3729 10.8968C82.6333 10.4847 83.1102 10.2258 83.6192 10.2258C83.8721 10.2258 84.1214 10.2902 84.3418 10.4098L112.434 25.6895L140.501 40.9695C141.187 41.3408 141.429 42.1753 141.035 42.8259C140.53 43.6567 140.262 44.6039 140.262 45.561C140.262 46.5284 140.522 47.4443 141.032 48.286C142.054 49.9683 143.973 51.0143 146.036 51.0143C146.419 51.0143 146.791 51.1608 147.058 51.4162C147.329 51.6683 147.481 52.0195 147.481 52.3802L147.485 94.1401C147.484 94.8922 146.834 95.5015 146.035 95.5015V95.5015Z" fill="#121212"/>
<path d="M77.3621 51.5967C76.5673 51.5967 75.917 50.987 75.917 50.2342V14.9838C75.917 14.231 76.5673 13.6213 77.3621 13.6213C78.1601 13.6213 78.8072 14.231 78.8072 14.9838V50.2342C78.8072 50.987 78.1601 51.5967 77.3621 51.5967ZM107.412 67.9599C106.899 67.9599 106.419 67.6973 106.158 67.2787C105.761 66.6281 106 65.7936 106.69 65.4155L139.056 47.7814C139.276 47.6622 139.526 47.6009 139.778 47.6009C140.291 47.6009 140.772 47.8601 141.032 48.2821C141.43 48.9293 141.191 49.7672 140.501 50.1419L108.135 67.776C107.915 67.8952 107.665 67.9599 107.412 67.9599ZM139.778 118.3C139.526 118.3 139.276 118.235 139.056 118.116L106.69 100.479C106.353 100.298 106.115 100.002 106.014 99.6508C105.916 99.3004 105.967 98.9325 106.158 98.6191C106.419 98.1968 106.895 97.9379 107.412 97.9379C107.665 97.9379 107.915 97.9992 108.135 98.1215L140.501 115.759C141.191 116.134 141.429 116.968 141.032 117.618C140.772 118.037 140.295 118.3 139.778 118.3ZM77.3621 152.273C76.5673 152.273 75.917 151.663 75.917 150.914V115.663C75.917 114.91 76.5673 114.297 77.3621 114.297C78.1601 114.297 78.8072 114.91 78.8072 115.663V150.914C78.8072 151.663 78.1601 152.273 77.3621 152.273ZM14.9349 118.276C14.4219 118.276 13.9414 118.013 13.6813 117.595C13.4898 117.278 13.4392 116.91 13.5404 116.559C13.6379 116.208 13.8763 115.915 14.2123 115.735L46.5892 98.1181C46.8096 97.9982 47.0589 97.9379 47.3117 97.9379C47.8284 97.9379 48.3088 98.1968 48.5653 98.6191C48.7568 98.9325 48.8074 99.3004 48.7099 99.6543C48.6087 100.005 48.3703 100.298 48.0343 100.479L15.6574 118.092C15.437 118.211 15.1877 118.276 14.9349 118.276ZM47.3117 67.9599C47.0589 67.9599 46.8096 67.8952 46.5892 67.776L14.2123 50.1419C13.5223 49.7672 13.2839 48.9327 13.6849 48.2821C13.9414 47.8601 14.4219 47.6009 14.9349 47.6009C15.1877 47.6009 15.437 47.6625 15.6574 47.7814L48.0343 65.4155C48.7243 65.7932 48.9627 66.6281 48.5653 67.2787C48.3052 67.6973 47.8284 67.9599 47.3117 67.9599Z" fill="#121212"/>
<path d="M77.3621 16.3462C72.5789 16.3428 68.6844 12.6777 68.6808 8.1748C68.6844 3.66878 72.5789 0 77.3621 0C82.1416 0.00374678 86.0293 3.66878 86.0325 8.1748C86.0293 12.6777 82.1416 16.3428 77.3621 16.3462ZM77.3621 2.72459C74.1757 2.72834 71.5781 5.17362 71.5709 8.17445C71.5781 11.1722 74.1757 13.6144 77.3621 13.6209C80.5448 13.6141 83.1391 11.1722 83.1424 8.17445C83.1391 5.17396 80.5448 2.72834 77.3621 2.72459ZM146.057 53.7356H146.043C144.547 53.7356 143.07 53.3678 141.765 52.6729C140.425 51.9573 139.305 50.9119 138.528 49.6445C137.766 48.4047 137.365 46.9949 137.365 45.5673C137.365 42.6482 139.027 39.9335 141.708 38.4859V38.4825C143.026 37.7638 144.522 37.3857 146.032 37.3857H146.043C147.535 37.3857 149.012 37.7536 150.313 38.4481C151.653 39.1603 152.77 40.2057 153.542 41.466H153.546C154.312 42.716 154.713 44.133 154.713 45.5636C154.716 46.9703 154.326 48.3634 153.589 49.5931C152.834 50.8568 151.725 51.9127 150.385 52.645L150.377 52.6484C149.059 53.361 147.567 53.7356 146.057 53.7356ZM146.039 40.111C145.013 40.111 144.041 40.3593 143.149 40.8464L143.141 40.8501C141.364 41.8103 140.259 43.6159 140.255 45.5677C140.255 46.5316 140.516 47.4445 141.032 48.2824C142.076 49.9855 143.954 51.0073 146.05 51.0111C147.076 51.0111 148.048 50.7655 148.944 50.2818H148.948C150.718 49.308 151.824 47.5024 151.824 45.5643C151.824 44.5969 151.56 43.6772 151.043 42.8291C150.013 41.1533 148.098 40.111 146.039 40.111ZM146.043 128.511H146.032C144.519 128.511 143.023 128.13 141.704 127.414C139.027 125.963 137.362 123.249 137.365 120.329C137.365 118.902 137.766 117.492 138.529 116.255C139.305 114.988 140.425 113.939 141.766 113.221C143.07 112.522 144.551 112.151 146.043 112.151H146.058C147.571 112.151 149.067 112.532 150.385 113.254C151.726 113.986 152.834 115.039 153.59 116.303C154.326 117.532 154.717 118.925 154.713 120.332C154.713 121.763 154.312 123.18 153.546 124.43H153.542C152.769 125.69 151.653 126.736 150.316 127.447C149.012 128.143 147.535 128.511 146.043 128.511ZM146.05 114.876C143.991 114.88 142.065 115.929 141.028 117.622C140.523 118.443 140.255 119.379 140.255 120.33C140.259 122.281 141.364 124.09 143.145 125.05C144.041 125.538 145.013 125.786 146.039 125.786C148.094 125.782 150.013 124.743 151.039 123.068H151.043C151.56 122.22 151.823 121.3 151.823 120.333C151.823 118.391 150.714 116.582 148.937 115.612C148.044 115.125 147.072 114.876 146.05 114.876ZM77.3621 165.901C72.5789 165.897 68.6844 162.232 68.6808 157.722C68.6844 155.535 69.5912 153.482 71.2313 151.941C72.8679 150.402 75.0427 149.554 77.3621 149.55C79.6782 149.554 81.8526 150.402 83.4888 151.941C85.1293 153.481 86.0325 155.535 86.0325 157.722C86.0325 162.229 82.1416 165.897 77.3621 165.901ZM77.3621 152.276C74.1684 152.276 71.5709 154.722 71.5709 157.722C71.5781 160.723 74.1757 163.169 77.3621 163.176C80.5448 163.169 83.1351 160.723 83.1424 157.722C83.1351 154.718 80.5448 152.276 77.3621 152.276ZM8.68129 128.511H8.67406C7.17841 128.511 5.70082 128.143 4.39664 127.448C3.05633 126.737 1.94001 125.695 1.15967 124.434L1.15606 124.423C0.401008 123.177 0 121.767 0 120.343C0 118.933 0.386558 117.54 1.12355 116.31C1.8786 115.043 2.98769 113.987 4.33161 113.255C5.65024 112.532 7.14589 112.151 8.65961 112.151H8.67045C11.7629 112.151 14.6422 113.724 16.1848 116.256C16.9471 117.492 17.3481 118.902 17.3481 120.33C17.3481 123.248 15.6863 125.963 13.0129 127.411C11.6943 128.129 10.195 128.511 8.68129 128.511ZM3.66688 123.075C4.70011 124.744 6.62205 125.783 8.67767 125.787C9.70006 125.787 10.6755 125.538 11.5714 125.051C13.3489 124.091 14.4544 122.281 14.458 120.33C14.458 119.37 14.1942 118.453 13.6812 117.616C12.6552 115.929 10.7333 114.88 8.66322 114.877C7.64444 114.877 6.67263 115.125 5.77669 115.612C3.97396 116.597 2.89376 118.368 2.89015 120.344C2.89376 121.311 3.15387 122.227 3.66326 123.072L3.66688 123.075ZM8.65961 53.7356C7.1495 53.7356 5.65747 53.3606 4.33884 52.6491L4.33161 52.6457C2.98769 51.9134 1.8786 50.854 1.12355 49.5869C0.386558 48.3607 0 46.9642 0 45.554C0 44.1272 0.401008 42.7167 1.15606 41.4701L1.15967 41.4632C1.94001 40.203 3.05633 39.1607 4.39664 38.4484C5.70082 37.7539 7.17841 37.3861 8.67045 37.3861H8.68129C10.1914 37.3861 11.6907 37.7672 13.0093 38.4859C15.6863 39.9335 17.3481 42.6482 17.3481 45.5673C17.3481 46.9945 16.9471 48.4047 16.1884 49.6411C15.4153 50.9082 14.2954 51.9573 12.9515 52.6726C11.6473 53.3674 10.1697 53.7353 8.67406 53.7353L8.65961 53.7356ZM5.76585 50.2818H5.76946C6.65457 50.7587 7.65528 51.0111 8.66322 51.0111C10.7658 51.0073 12.6444 49.9855 13.6849 48.2824C14.1979 47.4445 14.4544 46.5316 14.458 45.5677C14.4544 43.6193 13.3489 41.8107 11.5714 40.8501L11.5642 40.8464C10.6719 40.3593 9.70006 40.111 8.67406 40.111C6.62205 40.111 4.70372 41.1499 3.66688 42.8223H3.66326C3.15026 43.6701 2.89015 44.5898 2.89015 45.554C2.89376 47.5262 3.97034 49.294 5.76585 50.2818ZM68.2364 92.8313C67.8499 92.8313 67.4886 92.6882 67.214 92.4327L59.1902 84.8779C58.9157 84.619 58.764 84.2784 58.764 83.9139C58.764 83.5495 58.9157 83.2054 59.1902 82.95L67.214 75.3951C67.4886 75.1362 67.8499 74.9966 68.2364 74.9966C68.623 74.9966 68.9842 75.1396 69.2588 75.3951C69.5298 75.654 69.6815 75.9946 69.6815 76.3591C69.6815 76.7232 69.5297 77.0638 69.2552 77.323L62.2574 83.9139L69.2552 90.5049C69.5297 90.7603 69.6815 91.105 69.6815 91.4688C69.6815 91.8333 69.5298 92.1739 69.2588 92.4327C68.9842 92.6889 68.623 92.8313 68.2364 92.8313ZM86.4913 92.8313C86.1048 92.8313 85.7399 92.6882 85.4689 92.4293C85.1944 92.1739 85.0462 91.8298 85.0462 91.4654C85.0462 91.1043 85.198 90.7603 85.4689 90.5049L92.4703 83.9139L85.4689 77.323L85.4653 77.3193C85.1944 77.0638 85.0462 76.7232 85.0462 76.3591C85.0462 75.9946 85.1944 75.654 85.4689 75.3951C86.0144 74.8808 86.9649 74.8808 87.5101 75.3951L95.5375 82.95C95.8084 83.2088 95.9602 83.5495 95.9602 83.9139C95.9602 84.2784 95.8084 84.619 95.5375 84.8779L87.5101 92.4327C87.2391 92.6889 86.8746 92.8313 86.4913 92.8313ZM72.344 97.0753C72.1634 97.0753 71.9828 97.0409 71.8166 96.9803C71.4553 96.8471 71.1735 96.5886 71.0182 96.2545C70.8664 95.921 70.8592 95.5525 71.0001 95.2118L81.6575 69.6656C81.8747 69.1376 82.405 68.8004 83.0018 68.8004C83.1825 68.8004 83.3595 68.8311 83.5293 68.8958C84.2738 69.1683 84.638 69.9619 84.3465 70.6633L73.689 96.2095C73.4676 96.7347 72.9401 97.0753 72.344 97.0753Z" fill="#F0A500"/>
</svg>
