<svg width="140" height="140" viewBox="0 0 140 140" fill="none" xmlns="http://www.w3.org/2000/svg">
<path d="M70 0C62.2679 0 56 6.26792 56 14C56 21.7321 62.2679 28 70 28C77.7289 27.9924 83.9924 21.7289 84 14C84 6.26792 77.7321 0 70 0ZM70 23.3333C64.8454 23.3333 60.6667 19.1546 60.6667 14C60.6667 8.84538 64.8454 4.66667 70 4.66667C75.1546 4.66667 79.3333 8.84538 79.3333 14C79.3333 19.1546 75.1546 23.3333 70 23.3333Z" fill="#F0A500"/>
<path d="M79.3333 30.3335H78.7827L78.2903 30.5785C73.0692 33.1781 66.9308 33.1781 61.7097 30.5785L61.2173 30.3335H60.6667C54.2267 30.3411 49.0076 35.5602 49 42.0002V56.0002C49 59.8662 52.134 63.0002 56 63.0002H84C87.866 63.0002 91 59.8662 91 56.0002V42.0002C90.9924 35.5602 85.7733 30.3411 79.3333 30.3335ZM86.3333 56.0002C86.3333 57.2887 85.2886 58.3335 84 58.3335H56C54.7114 58.3335 53.6667 57.2887 53.6667 56.0002V42.0002C53.6672 38.3275 56.506 35.2796 60.1697 35.0188C66.404 37.9122 73.5962 37.9122 79.8303 35.0188C83.4937 35.2796 86.3327 38.3275 86.3333 42.0002V56.0002Z" fill="#F0A500"/>
<path d="M119 77C111.268 77 105 83.2679 105 91C105 98.7321 111.268 105 119 105C126.732 105 133 98.7321 133 91C132.992 83.2711 126.729 77.0076 119 77ZM119 100.333C113.845 100.333 109.667 96.1546 109.667 91C109.667 85.8454 113.845 81.6667 119 81.6667C124.155 81.6667 128.333 85.8454 128.333 91C128.333 96.1546 124.155 100.333 119 100.333Z" fill="#F0A500"/>
<path d="M128.333 107.333H127.783L127.29 107.567C122.069 110.166 115.931 110.166 110.71 107.567L110.217 107.333H109.667C103.227 107.341 98.0076 112.56 98 119V133C98 136.866 101.134 140 105 140H133C136.866 140 140 136.866 140 133V119C139.992 112.56 134.773 107.341 128.333 107.333ZM135.333 133C135.333 134.289 134.289 135.333 133 135.333H105C103.711 135.333 102.667 134.289 102.667 133V119C102.667 115.327 105.506 112.28 109.17 112.019C115.404 114.912 122.596 114.912 128.83 112.019C132.494 112.28 135.333 115.327 135.333 119V133Z" fill="#F0A500"/>
<path d="M21 77C13.2679 77 7 83.2679 7 91C7 98.7321 13.2679 105 21 105C28.7321 105 35 98.7321 35 91C34.9924 83.2711 28.7289 77.0076 21 77ZM21 100.333C15.8454 100.333 11.6667 96.1546 11.6667 91C11.6667 85.8454 15.8454 81.6667 21 81.6667C26.1546 81.6667 30.3333 85.8454 30.3333 91C30.3333 96.1546 26.1546 100.333 21 100.333Z" fill="#F0A500"/>
<path d="M30.3333 107.333H29.7827L29.2903 107.567C24.0692 110.166 17.9308 110.166 12.7097 107.567L12.2173 107.333H11.6667C5.22667 107.341 0.00758333 112.56 0 119V133C0 136.866 3.13396 140 7 140H35C38.866 140 42 136.866 42 133V119C41.9924 112.56 36.7733 107.341 30.3333 107.333ZM37.3333 133C37.3333 134.289 36.2886 135.333 35 135.333H7C5.71142 135.333 4.66667 134.289 4.66667 133V119C4.66725 115.327 7.50604 112.28 11.1697 112.019C17.404 114.912 24.596 114.912 30.8303 112.019C34.494 112.28 37.3328 115.327 37.3333 119V133Z" fill="#F0A500"/>
<path d="M93.1502 118.497C93.149 118.495 93.1478 118.492 93.1467 118.489C92.6415 117.303 91.271 116.752 90.0856 117.257C79.5492 121.673 67.8475 122.478 56.8053 119.548L58.9893 118.907C60.2265 118.544 60.9359 117.248 60.5736 116.011C60.2114 114.774 58.9152 114.064 57.678 114.427L48.3446 117.164C48.3096 117.164 48.284 117.203 48.2513 117.215C48.0352 117.296 47.8322 117.408 47.6493 117.549C47.5682 117.592 47.4903 117.641 47.416 117.696C47.1698 117.915 46.9747 118.186 46.8443 118.489C46.7177 118.794 46.6573 119.123 46.667 119.453C46.7238 119.769 46.8017 120.08 46.9003 120.386C46.9143 120.419 46.9003 120.456 46.926 120.489L51.5926 129.418C52.1894 130.561 53.5996 131.004 54.7426 130.408C55.8857 129.811 56.3287 128.401 55.732 127.258L53.8326 123.627C66.3784 127.398 79.8478 126.665 91.9103 121.555C93.0968 121.053 93.6521 119.684 93.1502 118.497Z" fill="#121212"/>
<path d="M132.316 61.3501C131.405 60.4392 129.928 60.4392 129.017 61.3501L125.715 64.6518C123.783 44.2147 110.808 26.4796 91.9147 18.4518C90.729 17.9466 89.3585 18.4981 88.8533 19.6838C88.3482 20.8694 88.8997 22.2399 90.0853 22.7451C107.034 29.9484 118.816 45.6902 120.948 63.9821L118.316 61.3501C117.389 60.4547 115.912 60.4803 115.017 61.4073C114.144 62.3114 114.144 63.745 115.017 64.6494L122.017 71.6494C122.927 72.5618 124.405 72.5638 125.317 71.6535C125.318 71.6521 125.32 71.6506 125.321 71.6494L132.321 64.6494C133.231 63.7371 133.229 62.2601 132.316 61.3501Z" fill="#121212"/>
<path d="M51.2657 20.2044C51.2581 20.0682 51.238 19.9332 51.205 19.8008C51.205 19.7797 51.1793 19.7658 51.17 19.7424C51.1607 19.7191 51.17 19.7027 51.17 19.6841C51.1064 19.5706 51.0329 19.4627 50.9507 19.3621C50.8751 19.2253 50.7859 19.0964 50.6847 18.9771C50.5467 18.8549 50.3939 18.7508 50.2297 18.6667C50.1477 18.597 50.0602 18.5338 49.9683 18.4778L40.635 14.2148C39.443 13.7253 38.0797 14.295 37.5903 15.487C37.1274 16.6143 37.6101 17.9081 38.6983 18.4567L43.5307 20.6664C25.3386 30.4025 13.9869 49.3664 14 70.0001C14 71.2887 15.0448 72.3334 16.3333 72.3334C17.6219 72.3334 18.6667 71.2887 18.6667 70.0001C18.655 51.8313 28.2628 35.0141 43.9203 25.7974L42.2333 29.3231C41.6771 30.483 42.1645 31.8743 43.323 32.4334C43.6377 32.5871 43.9831 32.667 44.3333 32.6667C45.2293 32.6656 46.0454 32.1514 46.4333 31.3437L51.1 21.6068C51.1 21.5834 51.1 21.5577 51.1187 21.5344C51.1793 21.3749 51.2216 21.2089 51.2447 21.0398C51.2846 20.914 51.3144 20.7854 51.3333 20.6548C51.3255 20.5028 51.303 20.352 51.2657 20.2044Z" fill="#121212"/>
</svg>
