<svg width="216" height="166" viewBox="0 0 216 166" fill="none" xmlns="http://www.w3.org/2000/svg">
<path d="M184.406 146.788H31.1239C26.093 146.788 22 142.634 22 137.528V28.26C22 23.154 26.093 19 31.1239 19H184.406C189.437 19 193.53 23.154 193.53 28.26V137.528C193.53 142.634 189.437 146.788 184.406 146.788ZM31.1239 22.704C28.1057 22.704 25.6496 25.1968 25.6496 28.26V137.528C25.6496 140.592 28.1057 143.084 31.1239 143.084H184.406C187.424 143.084 189.88 140.592 189.88 137.528V28.26C189.88 25.1968 187.424 22.704 184.406 22.704H31.1239Z" fill="#121212"/>
<path d="M24.366 43.0357H189.981V46.7004H24.366V43.0357ZM39.8355 35.7064C38.3304 35.7064 37.1056 34.4733 37.1056 32.958C37.1056 31.4426 38.3304 30.2095 39.8355 30.2095C41.3406 30.2095 42.5654 31.4426 42.5654 32.958C42.5654 34.4733 41.3406 35.7064 39.8355 35.7064ZM39.8355 32.0418C39.3332 32.0418 38.9255 32.4522 38.9255 32.958C38.9255 33.4637 39.3332 33.8741 39.8355 33.8741C40.3378 33.8741 40.7455 33.4637 40.7455 32.958C40.7455 32.4522 40.3378 32.0418 39.8355 32.0418ZM52.5751 35.7064C51.07 35.7064 49.8452 34.4733 49.8452 32.958C49.8452 31.4426 51.07 30.2095 52.5751 30.2095C54.0802 30.2095 55.3051 31.4426 55.3051 32.958C55.3051 34.4733 54.0802 35.7064 52.5751 35.7064ZM52.5751 32.0418C52.0728 32.0418 51.6652 32.4522 51.6652 32.958C51.6652 33.4637 52.0728 33.8741 52.5751 33.8741C53.0774 33.8741 53.4851 33.4637 53.4851 32.958C53.4851 32.4522 53.0774 32.0418 52.5751 32.0418ZM65.3148 35.7064C63.8097 35.7064 62.5848 34.4733 62.5848 32.958C62.5848 31.4426 63.8097 30.2095 65.3148 30.2095C66.8199 30.2095 68.0447 31.4426 68.0447 32.958C68.0447 34.4733 66.8199 35.7064 65.3148 35.7064ZM65.3148 32.0418C64.8125 32.0418 64.4048 32.4522 64.4048 32.958C64.4048 33.4637 64.8125 33.8741 65.3148 33.8741C65.8171 33.8741 66.2247 33.4637 66.2247 32.958C66.2247 32.4522 65.8171 32.0418 65.3148 32.0418ZM86.2442 116.329C85.8055 116.329 85.3651 116.169 85.0157 115.847L63.1763 95.6912C62.7996 95.3449 62.5848 94.8538 62.5848 94.3408C62.5848 93.8277 62.7996 93.3367 63.1745 92.9903L85.0139 72.8348C85.7564 72.1513 86.9066 72.2026 87.5855 72.9484C88.2643 73.6942 88.2152 74.854 87.4726 75.5375L67.0983 94.3408L87.4744 113.146C88.2152 113.831 88.2661 114.989 87.5873 115.735C87.2269 116.129 86.7355 116.329 86.2442 116.329ZM129.923 116.329C129.43 116.329 128.938 116.129 128.58 115.735C127.901 114.989 127.95 113.829 128.693 113.146L149.069 94.3408L128.693 75.5356C127.952 74.8503 127.901 73.6923 128.58 72.9466C129.259 72.2008 130.411 72.1495 131.151 72.833L152.991 92.9885C153.367 93.3367 153.582 93.8277 153.582 94.3408C153.582 94.8538 153.367 95.3449 152.993 95.6912L131.153 115.847C130.804 116.169 130.363 116.329 129.923 116.329V116.329ZM97.1638 125.49C96.9418 125.49 96.7161 125.45 96.4977 125.362C95.5623 124.992 95.1037 123.927 95.4731 122.985L119.132 62.5188C119.5 61.577 120.552 61.1098 121.493 61.4872C122.428 61.8573 122.887 62.9219 122.518 63.8637L98.8582 124.33C98.5743 125.05 97.8882 125.49 97.1638 125.49Z" fill="#F0A500"/>
</svg>
