<svg width="38" height="37" viewBox="0 0 38 37" fill="none" xmlns="http://www.w3.org/2000/svg">
    <g clip-path="url(#clip0)">
        <path d="M18.6923 0C8.37104 0 0 8.16696 0 18.24C0 26.299 5.35535 33.136 12.784 35.5482C13.717 35.717 14.0192 35.1515 14.0192 34.6712V31.2755C8.81965 32.379 7.73706 29.1232 7.73706 29.1232C6.88656 27.015 5.66065 26.4541 5.66065 26.4541C3.96433 25.3217 5.78994 25.346 5.78994 25.346C7.66696 25.4737 8.65454 27.2262 8.65454 27.2262C10.3213 30.0139 13.027 29.2083 14.094 28.7417C14.2607 27.5637 14.7451 26.7581 15.281 26.3036C11.1297 25.84 6.76506 24.2759 6.76506 17.2885C6.76506 15.2958 7.49562 13.6694 8.69037 12.3926C8.49721 11.932 7.857 10.0761 8.87262 7.56504C8.87262 7.56504 10.4428 7.0756 14.0146 9.43464C15.5053 9.03032 17.1035 8.82816 18.6923 8.82056C20.2812 8.82816 21.8809 9.03032 23.3747 9.43464C26.9434 7.0756 28.5104 7.56504 28.5104 7.56504C29.5276 10.0776 28.8874 11.9335 28.6943 12.3926C29.8937 13.6694 30.618 15.2973 30.618 17.2885C30.618 24.2942 26.2456 25.837 22.0834 26.2884C22.7532 26.8538 23.3654 27.9634 23.3654 29.6658V34.6712C23.3654 35.1561 23.6645 35.7261 24.6131 35.5467C32.0355 33.1314 37.3846 26.296 37.3846 18.24C37.3846 8.16696 29.0151 0 18.6923 0Z" fill="#121212" />
    </g>
    <defs>
        <clipPath id="clip0">
            <rect width="37.3846" height="36.48" fill="white" />
        </clipPath>
    </defs>
</svg>