<svg width="38" height="37" viewBox="0 0 38 37" fill="none" xmlns="http://www.w3.org/2000/svg">
    <g clip-path="url(#clip0)">
        <path d="M19.3077 3.28776C24.2985 3.28776 24.8905 3.306 26.8625 3.39416C31.9281 3.61912 34.2943 5.96448 34.5248 10.871C34.6151 12.7938 34.6323 13.3714 34.6323 18.2415C34.6323 23.1131 34.6136 23.6892 34.5248 25.612C34.2927 30.514 31.9328 32.8639 26.8625 33.0889C24.8905 33.177 24.3017 33.1953 19.3077 33.1953C14.3168 33.1953 13.7249 33.177 11.7544 33.0889C6.67637 32.8624 4.3227 30.5064 4.09216 25.6105C4.00181 23.6877 3.98312 23.1116 3.98312 18.24C3.98312 13.3699 4.00337 12.7938 4.09216 10.8695C4.32425 5.96448 6.68416 3.6176 11.7544 3.39264C13.7265 3.306 14.3168 3.28776 19.3077 3.28776ZM19.3077 0C14.2312 0 13.5956 0.02128 11.6018 0.10944C4.81337 0.41344 1.04064 4.0888 0.729099 10.719C0.637195 12.6662 0.615387 13.2863 0.615387 18.24C0.615387 23.1937 0.637195 23.8154 0.727541 25.761C1.03908 32.3851 4.80558 36.0666 11.6002 36.3706C13.5956 36.4587 14.2312 36.48 19.3077 36.48C24.3842 36.48 25.0213 36.4587 27.0152 36.3706C33.7974 36.0666 37.5794 32.3912 37.8863 25.761C37.9782 23.8154 38 23.1937 38 18.24C38 13.2863 37.9782 12.6662 37.8879 10.7206C37.5825 4.10248 33.8114 0.41496 27.0167 0.11096C25.0213 0.02128 24.3842 0 19.3077 0V0ZM19.3077 8.87376C14.0069 8.87376 9.7092 13.0674 9.7092 18.24C9.7092 23.4126 14.0069 27.6078 19.3077 27.6078C24.6085 27.6078 28.9062 23.4141 28.9062 18.24C28.9062 13.0674 24.6085 8.87376 19.3077 8.87376ZM19.3077 24.32C15.8668 24.32 13.0769 21.5992 13.0769 18.24C13.0769 14.8823 15.8668 12.16 19.3077 12.16C22.7486 12.16 25.5385 14.8823 25.5385 18.24C25.5385 21.5992 22.7486 24.32 19.3077 24.32ZM29.2863 6.3156C28.0464 6.3156 27.0416 7.296 27.0416 8.5044C27.0416 9.7128 28.0464 10.6932 29.2863 10.6932C30.5246 10.6932 31.5278 9.7128 31.5278 8.5044C31.5278 7.296 30.5246 6.3156 29.2863 6.3156Z" fill="#121212" />
    </g>
    <defs>
        <clipPath id="clip0">
            <rect x="0.615387" width="37.3846" height="36.48" fill="white" />
        </clipPath>
    </defs>
</svg>