<svg width="82" height="165" viewBox="0 0 82 165" fill="none" xmlns="http://www.w3.org/2000/svg">
<path d="M70.8549 0.5H11.1472C4.17365 0.5 6.89179e-07 6 0.500006 10.5912V82.5V153.45C0.500006 158 4.17365 164.5 11.1472 164.5H70.8514C77.8228 164.5 82 158 82 153.45V118.5V82V11.5C81 6 77.8285 0.5 70.8549 0.5ZM11.1472 3.21918H70.8549C75.1378 3.21918 78.6474 6.4457 79.1733 10.5912H2.82672C3.35011 6.44535 6.8604 3.21918 11.1472 3.21918ZM79.2787 153.45C79.2787 158.097 75.4982 161.877 70.8514 161.877H11.1472C6.50043 161.877 2.72026 158.097 2.72026 153.45V152.311H79.2823V153.45H79.2787ZM79.2787 150.201H2.72026V12.7011H79.2823V150.201H79.2787Z" fill="#121212"/>
<path d="M15.1575 9.23252C16.2479 9.23252 17.1318 8.3486 17.1318 7.25823C17.1318 6.16786 16.2479 5.28394 15.1575 5.28394C14.0672 5.28394 13.1832 6.16786 13.1832 7.25823C13.1832 8.3486 14.0672 9.23252 15.1575 9.23252Z" fill="#F0A500"/>
<path d="M49.5124 5.27979H33.5984C32.6274 5.27979 32.1268 6.01467 32.4758 6.9169L32.5267 7.04437C32.8781 7.94659 33.9477 8.68041 34.9176 8.68041H48.6358C49.6071 8.68041 50.5866 7.91847 50.8326 6.97921C51.0708 6.0428 50.4833 5.27979 49.5124 5.27979Z" fill="#F0A500"/>
<path d="M25.9 99.4289C25.5867 99.4289 25.2721 99.3145 25.0225 99.0832L9.4225 84.6267C9.1534 84.3783 9 84.0261 9 83.6581C9 83.2901 9.1534 82.9379 9.4212 82.6895L25.0212 68.233C25.5516 67.7428 26.3732 67.7796 26.8581 68.3144C27.343 68.8493 27.3079 69.6812 26.7775 70.1715L12.224 83.6581L26.7788 97.146C27.3079 97.6376 27.3443 98.4682 26.8594 99.003C26.602 99.2856 26.251 99.4289 25.9 99.4289ZM57.1 99.4289C56.7477 99.4289 56.3967 99.2856 56.1406 99.003C55.6557 98.4682 55.6908 97.6362 56.2212 97.146L70.776 83.6581L56.2212 70.1701C55.6921 69.6786 55.6557 68.848 56.1406 68.3131C56.6255 67.7782 57.4484 67.7414 57.9775 68.2317L73.5775 82.6882C73.8466 82.9379 74 83.2901 74 83.6581C74 84.0261 73.8466 84.3783 73.5788 84.6267L57.9788 99.0832C57.7292 99.3145 57.4146 99.4289 57.1 99.4289ZM33.7 106C33.5414 106 33.3802 105.971 33.2242 105.908C32.556 105.643 32.2284 104.879 32.4923 104.203L49.3923 60.8338C49.6549 60.1583 50.4063 59.8232 51.0784 60.0939C51.7466 60.3594 52.0742 61.123 51.8103 61.7985L34.9103 105.168C34.7075 105.685 34.2174 106 33.7 106Z" fill="#F0A500"/>
</svg>
