<svg width="80" height="49" viewBox="0 0 80 49" fill="none" xmlns="http://www.w3.org/2000/svg">
<path d="M18.8364 12.5207H33.893V13.7136H20.2166V22.6917H33.0775V23.8846H20.2166V33.7416H34.0499V34.9345H18.8364V12.5207ZM35.2419 12.5207H36.8416L43.9308 22.3778L51.1768 12.5207L61.0325 0L44.8404 23.4137L53.1843 34.9345H51.5218L43.9308 24.4496L36.3084 34.9345H34.6772L43.0838 23.4137L35.2419 12.5207ZM53.7803 13.7136V12.5207H70.9386V13.7136H63.0338V34.9345H61.6537V13.7136H53.7803Z" fill="white"/>
<path d="M0 12.5205H1.72524L25.5152 48.0061L15.684 34.9343L1.44292 14.2157L1.38019 34.9343H0V12.5205Z" fill="white"/>
<path d="M70.7995 33.3816C71.0848 33.3816 71.293 33.1639 71.293 32.8824C71.293 32.601 71.0848 32.3832 70.7995 32.3832C70.5175 32.3832 70.306 32.601 70.306 32.8824C70.306 33.1639 70.5175 33.3816 70.7995 33.3816ZM72.1557 32.0682C72.1557 32.8992 72.7566 33.4419 73.6328 33.4419C74.566 33.4419 75.1299 32.8824 75.1299 31.9107V28.4898H74.378V31.9074C74.378 32.4468 74.1061 32.735 73.626 32.735C73.1963 32.735 72.9043 32.4669 72.8942 32.0682H72.1557ZM76.1135 32.0247C76.1672 32.8891 76.889 33.4419 77.9632 33.4419C79.1113 33.4419 79.8297 32.8623 79.8297 31.9375C79.8297 31.2105 79.4201 30.8084 78.4265 30.5772L77.8927 30.4466C77.2616 30.2991 77.0065 30.1014 77.0065 29.7563C77.0065 29.3208 77.4026 29.036 77.9968 29.036C78.5607 29.036 78.9501 29.3141 79.0206 29.7597H79.7524C79.7088 28.9455 78.9904 28.3726 78.0068 28.3726C76.9494 28.3726 76.2444 28.9455 76.2444 29.8066C76.2444 30.5169 76.6439 30.9391 77.5201 31.1435L78.1445 31.2942C78.7856 31.445 79.0676 31.6662 79.0676 32.0347C79.0676 32.4636 78.6245 32.7752 78.0203 32.7752C77.3724 32.7752 76.9225 32.4837 76.8588 32.0247H76.1135Z" fill="white"/>
</svg>
