<svg width="48" height="42" viewBox="0 0 48 42" fill="none" xmlns="http://www.w3.org/2000/svg">
<path d="M47.1623 21.0048C47.1623 17.8805 43.2497 14.9197 37.2511 13.0835C38.6354 6.96956 38.0201 2.10529 35.3092 0.547951C34.6844 0.18265 33.9538 0.00961304 33.1559 0.00961304V2.15335C33.5981 2.15335 33.9538 2.23987 34.2518 2.4033C35.5592 3.15312 36.1263 6.00824 35.6841 9.68048C35.5784 10.5841 35.4054 11.5358 35.1939 12.5068C33.3097 12.0453 31.2525 11.6896 29.0895 11.4589C27.7917 9.68048 26.4459 8.06546 25.0904 6.65232C28.2243 3.73953 31.1659 2.14374 33.1655 2.14374V0C30.5219 0 27.0611 1.88418 23.5619 5.15267C20.0627 1.90341 16.602 0.0384529 13.9583 0.0384529V2.18219C15.9483 2.18219 18.8995 3.76837 22.0334 6.66194C20.6876 8.07507 19.3417 9.68048 18.0632 11.4589C15.8906 11.6896 13.8334 12.0453 11.9492 12.5164C11.7281 11.555 11.5647 10.6226 11.4493 9.72854C10.9975 6.05631 11.555 3.20119 12.8528 2.44175C13.1412 2.26871 13.5161 2.19181 13.9583 2.19181V0.0480659C13.1508 0.0480659 12.4202 0.221103 11.7858 0.586404C9.08446 2.14374 8.47883 6.9984 9.87274 13.0932C3.89334 14.9389 0 17.8901 0 21.0048C0 24.1291 3.91256 27.0899 9.91119 28.9261C8.52689 35.0401 9.14214 39.9043 11.8531 41.4617C12.4779 41.827 13.2085 42 14.016 42C16.6596 42 20.1204 40.1158 23.6196 36.8473C27.1188 40.0966 30.5795 41.9615 33.2232 41.9615C34.0307 41.9615 34.7613 41.7885 35.3957 41.4232C38.097 39.8659 38.7027 35.0112 37.3088 28.9165C43.2689 27.0803 47.1623 24.1195 47.1623 21.0048ZM34.6459 14.5928C34.2902 15.8329 33.848 17.1115 33.3481 18.39C32.954 17.621 32.5406 16.8519 32.0888 16.0829C31.6466 15.3138 31.1756 14.564 30.7045 13.8334C32.0696 14.0352 33.3866 14.2852 34.6459 14.5928ZM30.2431 24.8309C29.4932 26.1286 28.7242 27.3591 27.9263 28.5031C26.4939 28.6281 25.0423 28.6954 23.5811 28.6954C22.1295 28.6954 20.678 28.6281 19.2552 28.5127C18.4573 27.3687 17.6786 26.1479 16.9288 24.8597C16.1982 23.6004 15.5349 22.3218 14.9293 21.0336C15.5253 19.7455 16.1982 18.4573 16.9192 17.198C17.669 15.9002 18.4381 14.6697 19.236 13.5257C20.6683 13.4008 22.1199 13.3335 23.5811 13.3335C25.0327 13.3335 26.4843 13.4008 27.9071 13.5161C28.705 14.6601 29.4836 15.881 30.2335 17.1691C30.9641 18.4285 31.6274 19.707 32.233 20.9952C31.6274 22.2834 30.9641 23.5715 30.2431 24.8309ZM33.3481 23.5811C33.8672 24.8693 34.3095 26.1575 34.6748 27.4072C33.4154 27.7148 32.0888 27.9744 30.7141 28.1762C31.1852 27.436 31.6562 26.6766 32.0984 25.8979C32.5406 25.1289 32.954 24.3502 33.3481 23.5811ZM23.6004 33.8384C22.7063 32.9155 21.8123 31.8869 20.9279 30.7622C21.7931 30.8006 22.6775 30.8295 23.5715 30.8295C24.4752 30.8295 25.3692 30.8103 26.244 30.7622C25.3788 31.8869 24.4848 32.9155 23.6004 33.8384ZM16.4482 28.1762C15.0831 27.9744 13.7661 27.7244 12.5068 27.4168C12.8624 26.1767 13.3046 24.8981 13.8045 23.6196C14.1987 24.3886 14.612 25.1577 15.0639 25.9268C15.5157 26.6958 15.9771 27.4456 16.4482 28.1762ZM23.5523 8.17121C24.4463 9.09407 25.3404 10.1227 26.2248 11.2474C25.3596 11.209 24.4752 11.1801 23.5811 11.1801C22.6775 11.1801 21.7835 11.1994 20.9087 11.2474C21.7739 10.1227 22.6679 9.09407 23.5523 8.17121ZM16.4385 13.8334C15.9675 14.5736 15.4965 15.333 15.0542 16.1117C14.612 16.8808 14.1987 17.6498 13.8045 18.4189C13.2854 17.1307 12.8432 15.8425 12.4779 14.5928C13.7372 14.2948 15.0639 14.0352 16.4385 13.8334ZM7.73861 25.8691C4.33555 24.4175 2.13413 22.5141 2.13413 21.0048C2.13413 19.4955 4.33555 17.5825 7.73861 16.1405C8.56535 15.7848 9.46899 15.4676 10.4015 15.1696C10.9494 17.0538 11.6704 19.0149 12.5644 21.024C11.68 23.0236 10.9686 24.975 10.4303 26.8496C9.4786 26.5516 8.57496 26.2248 7.73861 25.8691ZM12.9105 39.6063C11.6031 38.8565 11.0359 36.0014 11.4781 32.3291C11.5839 31.4255 11.7569 30.4738 11.9684 29.5029C13.8526 29.9643 15.9098 30.32 18.0728 30.5507C19.3706 32.3291 20.7164 33.9441 22.0719 35.3573C18.938 38.2701 15.9963 39.8659 13.9968 39.8659C13.5642 39.8563 13.1989 39.7697 12.9105 39.6063ZM35.713 32.2811C36.1648 35.9533 35.6072 38.8084 34.3094 39.5679C34.0211 39.7409 33.6461 39.8178 33.2039 39.8178C31.214 39.8178 28.2628 38.2316 25.1289 35.3381C26.4747 33.9249 27.8206 32.3195 29.0991 30.5411C31.2717 30.3104 33.3289 29.9547 35.2131 29.4836C35.4342 30.4546 35.6072 31.387 35.713 32.2811ZM39.4141 25.8691C38.5873 26.2248 37.6837 26.542 36.7512 26.84C36.2032 24.9558 35.4823 22.9947 34.5882 20.9856C35.4726 18.986 36.184 17.0346 36.7224 15.16C37.6741 15.458 38.5777 15.7848 39.4237 16.1405C42.8267 17.5921 45.0281 19.4955 45.0281 21.0048C45.0185 22.5141 42.8171 24.4271 39.4141 25.8691Z" fill="#61DAFB"/>
<path d="M23.5715 25.3983C25.9978 25.3983 27.9648 23.4314 27.9648 21.005C27.9648 18.5787 25.9978 16.6118 23.5715 16.6118C21.1452 16.6118 19.1783 18.5787 19.1783 21.005C19.1783 23.4314 21.1452 25.3983 23.5715 25.3983Z" fill="#61DAFB"/>
</svg>
