<svg width="149" height="152" viewBox="0 0 149 152" fill="none" xmlns="http://www.w3.org/2000/svg">
<path d="M19.6414 44.2918C36.8998 -1.49256 75.0648 1.34304 75.9998 1.34304C76.9348 1.34304 119.652 0.51344 134.555 44.2884" stroke="#121212" stroke-width="2" stroke-miterlimit="10" stroke-linecap="round" stroke-linejoin="round"/>
<path d="M33.4386 40.6128C33.4386 40.6128 17.0472 43.7646 9.20683 49.7656C7.90123 52.4686 7.74823 59.5304 8.30583 63.6444C8.83963 67.5816 10.7878 75.2384 12.3586 76.2482M132.776 79.9882C132.776 79.9882 140.817 77.7408 142.317 76.7684C143.888 75.7586 146.257 68.9926 146.968 65.0826C147.917 59.8534 147.199 52.523 145.894 49.82C138.05 43.819 121.832 40.8474 121.832 40.8474L132.776 79.9882Z" stroke="#121212" stroke-width="2" stroke-miterlimit="10" stroke-linecap="round" stroke-linejoin="round"/>
<path d="M124.508 118.299L127.85 107.664L136.544 106.583C136.544 106.583 138.475 102.353 139.111 99.5891C139.747 96.8249 140.6 88.5391 140.6 87.2607C140.6 85.9823 132.287 82.5755 132.287 82.5755M19.9001 68.7749C19.9001 68.7749 40.7387 62.3999 76.0001 62.3999C112.808 62.3999 135.5 68.5607 135.5 68.5607L127.85 97.4607L116.8 106.6L89.6001 103.2L82.8001 86.1999H69.2001L62.4001 103.2L38.6001 108.511L26.0609 101.922L22.3685 82.0655L19.9001 68.7749ZM14.4737 90.4941C14.4737 90.4941 15.2965 98.4875 16.3573 101.677C17.4181 104.866 19.9239 110.85 21.1989 110.85C22.4739 110.85 28.0091 110 28.0091 110C28.0091 110 30.8821 122.502 36.9953 127.534L14.4737 90.4941Z" stroke="#121212" stroke-width="2" stroke-miterlimit="10" stroke-linecap="round" stroke-linejoin="round"/>
<path d="M25 127C25 127 31.9598 127.476 36.968 127.476C41.9762 127.476 53.1996 122.984 53.1996 122.984L63.1752 113.781C63.1752 113.781 71.1584 116.8 76 116.8C80.8416 116.8 85.9892 113.628 89.3892 113.413C90.9396 114.393 103.2 120.2 103.2 120.2C103.2 120.2 114.08 120.268 116.395 120.268C118.711 120.268 130.4 116.8 130.4 116.8C130.4 116.8 120.469 134.051 113.862 136.581C109.361 138.308 96.5258 140.6 93 140.6C91.6094 140.6 87.5157 140.114 85.7205 139.134C82.6605 137.465 76 132.236 76 132.236C76 132.236 66.2522 139.192 63.5594 140.253C60.0778 141.627 53.4614 144 48.8 144C44.1386 144 34.078 139.056 25 127Z" stroke="#F0A500" stroke-width="2" stroke-miterlimit="10" stroke-linecap="round" stroke-linejoin="round"/>
<path d="M66.8608 110C66.8608 110 69.2068 116.8 76 116.8C82.7932 116.8 85.1392 109.361 85.1392 109.361M53.135 144.15C53.135 144.15 64.1408 150.8 76 150.8C92.1738 150.8 104.706 139.135 104.706 139.135L53.135 144.15Z" stroke="#121212" stroke-width="2" stroke-miterlimit="10" stroke-linecap="round" stroke-linejoin="round"/>
<path d="M86.2 28.3999V21.5999H65.8V28.3999M69.2 48.7999H82.8H69.2ZM76 48.7999V21.5999V48.7999Z" stroke="#F0A500" stroke-width="2" stroke-miterlimit="10"/>
<path d="M100.048 87.961C100.953 87.9406 101.673 87.196 101.66 86.2916C101.646 85.3838 100.898 84.6596 99.987 84.68C99.0826 84.697 98.3584 85.445 98.3788 86.3494C98.3924 87.2538 99.1404 87.978 100.048 87.961ZM110.139 95.3526C107.974 94.3054 105.604 95.6314 101.289 95.713C98.0762 95.8286 95.3834 95.8626 95.2066 90.8238C95.0298 85.7748 97.0834 81.5996 100.296 81.4874C103.506 81.3752 106.437 85.3736 106.831 90.409C106.94 91.7996 106.787 92.8094 106.444 93.5608C109.425 93.2038 110.109 95.2302 110.139 95.3526ZM54.0496 89.1782C54.954 89.1544 55.668 88.3996 55.6442 87.4952C55.6204 86.584 54.8622 85.87 53.9612 85.8972C53.05 85.9176 52.336 86.6758 52.3598 87.5802C52.3836 88.488 53.1384 89.202 54.0496 89.1782ZM59.0102 91.82C59.0578 96.8622 56.3888 96.5596 53.1724 96.5902C52.846 96.6004 52.54 96.6038 52.2306 96.6038C51.8736 96.614 51.5268 96.6174 51.1936 96.6106C48.0724 96.6038 46.0834 96.4644 44.3154 97.4164C44.3562 97.3076 45.1314 95.577 47.933 94.8698C47.6236 94.1898 47.4298 93.2412 47.3788 91.9288C47.185 86.8866 50.296 82.7556 53.509 82.725C56.7186 82.6944 58.9626 86.7744 59.0102 91.82Z" fill="#F0A500"/>
<path d="M58.9047 62.9236C28.6584 68.6118 1.19995 101.803 1.19995 101.803L19.9 68.775" stroke="#121212" stroke-width="2" stroke-miterlimit="10" stroke-linecap="round" stroke-linejoin="round"/>
<path d="M114.661 65.6195C104.183 73.1301 82.6333 75.6325 82.6333 75.6325C82.6333 75.6325 90.1473 66.4117 90.9361 63.0491C75.0819 64.7151 55.5999 75.9997 55.5999 75.9997L57.8609 63.1375" stroke="#121212" stroke-width="2" stroke-miterlimit="10" stroke-linecap="round" stroke-linejoin="round"/>
</svg>
